<svg id="visual" viewBox="0 0 1024 600" width="1024" height="600" xmlns="http://www.w3.org/2000/svg" xmlns:xlink="http://www.w3.org/1999/xlink" version="1.1"><rect x="0" y="0" width="1024" height="600" fill="#001220"></rect><defs><linearGradient id="grad1_0" x1="41.4%" y1="100%" x2="100%" y2="0%"><stop offset="15.866666666666665%" stop-color="#001220" stop-opacity="1"></stop><stop offset="84.13333333333333%" stop-color="#001220" stop-opacity="1"></stop></linearGradient></defs><defs><linearGradient id="grad2_0" x1="0%" y1="100%" x2="58.6%" y2="0%"><stop offset="15.866666666666665%" stop-color="#001220" stop-opacity="1"></stop><stop offset="84.13333333333333%" stop-color="#001220" stop-opacity="1"></stop></linearGradient></defs><g transform="translate(1024, 600)"><path d="M-296.7 0C-300.1 -34.8 -303.4 -69.5 -282.2 -91.7C-260.9 -113.9 -215 -123.5 -187.7 -136.4C-160.3 -149.3 -151.6 -165.5 -139.9 -192.5C-128.2 -219.6 -113.7 -257.6 -89.9 -276.8C-66.1 -295.9 -33.1 -296.3 0 -296.7L0 0Z" fill="#2a4e91"></path></g><g transform="translate(0, 0)"><path d="M296.7 0C281.3 26.1 265.8 52.1 260.6 84.7C255.4 117.2 260.3 156.2 240 174.4C219.7 192.6 174.2 190.1 144.6 199C115 207.9 101.5 228.1 80 246.3C58.6 264.5 29.3 280.6 0 296.7L0 0Z" fill="#2a4e91"></path></g></svg>